<!--?xml version="1.0" encoding="UTF-8" standalone="no"?-->
<!-- Created with Inkscape (http://www.inkscape.org/) + russo vim edit -->

<svg xmlns:dc="http://purl.org/dc/elements/1.1/" xmlns:cc="http://creativecommons.org/ns#" xmlns:rdf="http://www.w3.org/1999/02/22-rdf-syntax-ns#" xmlns:svg="http://www.w3.org/2000/svg" xmlns="http://www.w3.org/2000/svg" xmlns:xlink="http://www.w3.org/1999/xlink" version="1.1" width="600" height="1030" id="svg5925">

  <!-- XXX DEFS -->
  <defs id="defs5927">
    <clipPath id="clipPath5068">
      <path d="m 1518.03,252.613 -4.451,10.524 4.451,-10.524 z" id="path5070"></path>
    </clipPath>
    <linearGradient x1="0" y1="0" x2="1" y2="0" id="linearGradient3270" xlink:href="#linearGradient5076" gradientUnits="userSpaceOnUse" gradientTransform="matrix(-0.2468414,-10.411911,-10.411911,0.2468414,1515.9277,263.08008)" spreadMethod="pad"></linearGradient>
    <linearGradient x1="0" y1="0" x2="1" y2="0" id="linearGradient5076" gradientUnits="userSpaceOnUse" gradientTransform="matrix(-0.2468414,-10.411911,-10.411911,0.2468414,1515.9277,263.08008)" spreadMethod="pad">
      <stop id="stop5078" style="stop-color:#ffffff;stop-opacity:1" offset="0"></stop>
      <stop id="stop5080" style="stop-color:#383332;stop-opacity:1" offset="1"></stop>
    </linearGradient>
    <clipPath id="clipPath5124">
      <path d="m 1514.024,271.328 4.942,10.299 -4.942,-10.299 z" id="path5126"></path>
    </clipPath>
    <linearGradient x1="0" y1="0" x2="1" y2="0" id="linearGradient3272" xlink:href="#linearGradient5132" gradientUnits="userSpaceOnUse" gradientTransform="matrix(0.2467957,10.409958,-10.409958,0.2467957,1516.3721,271.27246)" spreadMethod="pad"></linearGradient>
    <linearGradient x1="0" y1="0" x2="1" y2="0" id="linearGradient5132" gradientUnits="userSpaceOnUse" gradientTransform="matrix(0.2467957,10.409958,-10.409958,0.2467957,1516.3721,271.27246)" spreadMethod="pad">
      <stop id="stop5134" style="stop-color:#ffffff;stop-opacity:1" offset="0"></stop>
      <stop id="stop5136" style="stop-color:#383332;stop-opacity:1" offset="1"></stop>
    </linearGradient>
  </defs>

  <!-- XXX METADATA -->
  <metadata id="metadata5930">
    <rdf:rdf>
      <cc:work rdf:about="">
        <dc:format>image/svg+xml</dc:format>
        <dc:type rdf:resource="http://purl.org/dc/dcmitype/StillImage"></dc:type>
        <dc:title></dc:title>
      </cc:work>
    </rdf:rdf>
  </metadata>

  <g id="layer1">
    

    <!-- XXX top rect -->
    <rect x="2" y="1" width="596" height="580" fill="#61b9e7" style="stroke:#cccccc;stroke-width:1;" transform=""></rect>

    <!-- XXX bottom rect if transmision else bottom "rec" w/mueca -->
    
    <!-- XXX bottom "rect" (path with mueca (ranura)) -->
    <g id="g_path_mueca" fill="#d9edf9" style="stroke:#cccccc;stroke-width:1;" transform="matrix(0.99694,0,0,0.96,4,25)">
      <path id="path_mueca" d="m -2,806.32092 0,-228.38575 298.92852,0 298.9286,0 0,184.49483 -41.23968,0.0575 -0.17907,45.03091 40.96164,-0.19753 0.45711,227.38572 -298.9286,0 -298.92852,0 z"></path>
    </g>
    

    <!-- XXX Group Flecha -->
    <g id="group_flecha" transform="matrix(1.7464477,0,0,-1.4816169,292.0272,994.4291)" fill="#ffffff">
      <path d="m 0,0 -89.365,90.6 0,85.336 59.573,-60.401 0,136.887 59.581,0 0,-136.887 59.578,60.401 0,-85.336 L 0,0 z" id="path3846" style="fill-opacity:1;fill-rule:nonzero;stroke:none"></path>
      <path d="m 0,0 -89.365,90.6 0,85.336 59.573,-60.401 0,136.887 59.581,0 0,-136.887 59.578,60.401 0,-85.336 L 0,0 z" id="path8028" style="fill-opacity:1;fill-rule:nonzero;stroke:none"></path>
    </g>

    <!-- XXX Legends reverso boleta -->
        <g id="g_legend_cierre" fill="#ffffff">
      <path d="m 171.96456,118.07598 -22.2747,0 -3.5152,10.25279 -14.3194,0 20.4616,-56.277261 16.9836,0 20.4617,56.277261 -14.3195,0 -3.4781,-10.25279 m -18.7226,-10.44126 15.1335,0 -7.5483,-22.390281 -7.5852,22.390281" id="path3111"></path>
      <path d="m 217.25,85.09375 c -7.4743,5e-5 -13.31315,1.95486 -17.53125,5.875 -4.2181,3.89509 -6.3125,9.32044 -6.3125,16.28125 0,6.96086 2.0944,12.42358 6.3125,16.34375 4.2181,3.89505 10.05695,5.84375 17.53125,5.84375 2.146,0 4.28485,-0.22292 6.40625,-0.625 2.1461,-0.37694 4.27165,-0.93974 6.34375,-1.71875 l 0,-11.0625 c -1.5787,1.23136 -3.3128,2.18428 -5.1875,2.8125 -1.8501,0.62825 -3.803,0.9375 -5.875,0.9375 -3.7002,0 -6.6155,-1.09498 -8.6875,-3.28125 -2.0475,-2.21137 -3.0626,-5.30466 -3.0625,-9.25 -1e-4,-3.94529 1.015,-7.00121 3.0625,-9.1875 2.072,-2.21134 4.9873,-3.31247 8.6875,-3.3125 1.9487,3e-5 3.79305,0.30317 5.59375,0.90625 1.8254,0.60313 3.66805,1.52482 5.46875,2.78125 l 0,-11 c -2.0967,-0.77897 -4.22235,-1.37302 -6.34375,-1.75 -2.0967,-0.40203 -4.23555,-0.5937 -6.40625,-0.59375 z" id="path3113"></path>
      <path d="m 256.35546,74.124689 0,11.98671 13.6534,0 0,9.64968 -13.6534,0 0,17.904691 c 0,1.96011 0.3823,3.29197 1.147,3.99558 0.7647,0.6785 2.2817,1.01775 4.5512,1.01774 l 6.8082,0 0,9.64968 -11.3594,0 c -5.2295,0 -8.942,-1.10569 -11.1374,-3.31708 -2.1707,-2.2365 -3.2561,-6.01847 -3.2561,-11.34592 l 0,-17.904691 -6.5862,0 0,-9.64968 6.5862,0 0,-11.98671 13.2465,0" id="path3115"></path>
      <path d="m 298.27326,109.33096 c -2.7628,10e-6 -4.8472,0.47747 -6.2532,1.43237 -1.3814,0.95493 -2.0721,2.36217 -2.0721,4.22174 0,1.70881 0.555,3.05323 1.665,4.03326 1.1347,0.95493 2.7011,1.43238 4.6992,1.43237 2.4914,1e-5 4.5881,-0.90464 6.2902,-2.71396 1.702,-1.83444 2.5531,-4.12121 2.5531,-6.86033 l 0,-1.54545 -6.8822,0 m 20.2397,-5.0887 0,24.08651 -13.3575,0 0,-6.25722 c -1.7761,2.5632 -3.7741,4.43534 -5.9942,5.61642 -2.2201,1.15596 -4.9212,1.73393 -8.1033,1.73393 -4.2921,0 -7.7826,-1.26903 -10.4713,-3.80711 -2.6641,-2.56318 -3.9962,-5.88026 -3.9962,-9.95123 0,-4.95047 1.6651,-8.58166 4.9952,-10.89359 3.3548,-2.31187 8.609,-3.46783 15.7625,-3.46786 l 7.8073,0 0,-1.05542 c 0,-2.135971 -0.8264,-3.694001 -2.4791,-4.674081 -1.6527,-1.00513 -4.2305,-1.50772 -7.7332,-1.50776 -2.8368,4e-5 -5.4762,0.28903 -7.9183,0.86697 -2.4421,0.578 -4.7115,1.44497 -6.8082,2.60089 l 0,-10.29048 c 2.8367,-0.70358 5.6858,-1.2313 8.5473,-1.58315 2.8614,-0.3769 5.7228,-0.56537 8.5842,-0.56542 7.4743,5e-5 12.8641,1.50781 16.1696,4.52329 3.3301,2.99044 4.9951,7.86553 4.9952,14.625311" id="path3117"></path>
      <path d="m 365.21196,92.293229 0,-22.61644 13.3204,0 0,58.651981 -13.3204,0 0,-6.10644 c -1.8255,2.48781 -3.8359,4.30969 -6.0312,5.46564 -2.1955,1.15596 -4.7362,1.73393 -7.6223,1.73393 -5.1062,0 -9.2996,-2.06061 -12.5804,-6.18183 -3.2808,-4.14633 -4.9212,-9.47376 -4.9212,-15.98229 0,-6.50848 1.6404,-11.823341 4.9212,-15.944591 3.2808,-4.14631 7.4742,-6.21948 12.5804,-6.21953 2.8614,5e-5 5.3898,0.59059 7.5853,1.77163 2.22,1.15599 4.2427,2.9653 6.0682,5.42794 m -8.7323,27.328211 c 2.8367,10e-6 4.9951,-1.05543 6.4752,-3.1663 1.5047,-2.11085 2.257,-5.17664 2.2571,-9.19736 -10e-5,-4.02067 -0.7524,-7.08646 -2.2571,-9.197361 -1.4801,-2.11083 -3.6385,-3.16626 -6.4752,-3.1663 -2.8121,4e-5 -4.9705,1.05547 -6.4752,3.1663 -1.4801,2.110901 -2.2201,5.176691 -2.2201,9.197361 0,4.02072 0.74,7.08651 2.2201,9.19736 1.5047,2.11087 3.6631,3.16631 6.4752,3.1663" id="path3119"></path>
      <path d="m 429.54846,107.10701 0,3.84479 -30.9701,0 c 0.3207,3.16632 1.4431,5.54104 3.3671,7.12418 1.9241,1.58317 4.6128,2.37473 8.0663,2.37472 2.7874,1e-5 5.6365,-0.41461 8.5473,-1.2439 2.9354,-0.85439 5.9448,-2.13598 9.0283,-3.84479 l 0,10.40357 c -3.1328,1.2062 -6.2656,2.11086 -9.3983,2.71397 -3.1328,0.62823 -6.2656,0.94235 -9.3983,0.94235 -7.499,0 -13.3328,-1.93496 -17.5016,-5.80489 -4.1442,-3.89504 -6.2162,-9.34812 -6.2162,-16.35923 0,-6.88542 2.035,-12.300801 6.1052,-16.246151 4.0948,-3.94527 9.719,-5.91792 16.8725,-5.91797 6.5122,5e-5 11.7171,1.99783 15.6146,5.99336 3.9221,3.99561 5.8831,9.335591 5.8832,16.019991 m -13.6165,-4.4856 c 0,-2.56317 -0.74,-4.623781 -2.2201,-6.181831 -1.4554,-1.58312 -3.3671,-2.37469 -5.7352,-2.37473 -2.5654,4e-5 -4.6498,0.74135 -6.2532,2.22396 -1.6034,1.45753 -2.6024,3.56839 -2.9971,6.332601 l 17.2056,0" id="path3121"></path>
      <path d="m 150.94066,217.87485 c -2.6148,1.38212 -5.3405,2.42499 -8.1773,3.1286 -2.8368,0.70363 -5.7969,1.05544 -8.8803,1.05544 -9.201,0 -16.4902,-2.61345 -21.8677,-7.84037 -5.3775,-5.25203 -8.0663,-12.36364 -8.0663,-21.33485 0,-8.99628 2.6888,-16.10788 8.0663,-21.33484 5.3775,-5.25198 12.6667,-7.87801 21.8677,-7.87806 3.0834,5e-5 6.0435,0.35187 8.8803,1.05544 2.8368,0.70367 5.5625,1.74654 8.1773,3.1286 l 0,11.64747 c -2.6395,-1.8344 -5.2419,-3.17882 -7.8073,-4.03327 -2.5654,-0.85435 -5.2665,-1.28155 -8.1032,-1.28159 -5.0816,4e-5 -9.0777,1.65858 -11.9884,4.97562 -2.9108,3.31711 -4.3662,7.89066 -4.3662,13.72063 0,5.80492 1.4554,10.3659 4.3662,13.68295 2.9107,3.3171 6.9068,4.97563 11.9884,4.97562 2.8367,1e-5 5.5378,-0.42718 8.1032,-1.28159 2.5654,-0.85439 5.1678,-2.19881 7.8073,-4.03327 l 0,11.64747" id="path3123"></path>
      <path d="m 159.24886,178.7484 13.2464,0 0,42.21737 -13.2464,0 0,-42.21737 m 0,-16.43462 13.2464,0 0,11.00667 -13.2464,0 0,-11.00667" id="path3125"></path>
      <path d="m 225.37966,199.744 0,3.84479 -30.97,0 c 0.3206,3.16632 1.443,5.54105 3.3671,7.12419 1.924,1.58315 4.6128,2.37473 8.0663,2.37472 2.7874,10e-6 5.6365,-0.41463 8.5473,-1.2439 2.9354,-0.85439 5.9448,-2.13598 9.0283,-3.8448 l 0,10.40357 c -3.1328,1.20621 -6.2656,2.11087 -9.3983,2.71397 -3.1329,0.62824 -6.2656,0.94235 -9.3984,0.94235 -7.4989,0 -13.3328,-1.93496 -17.5016,-5.80489 -4.1441,-3.89504 -6.2162,-9.34811 -6.2162,-16.35922 0,-6.88543 2.0351,-12.3008 6.1052,-16.24615 4.0948,-3.94528 9.719,-5.91793 16.8726,-5.91797 6.5122,4e-5 11.717,1.99783 15.6145,5.99336 3.9221,3.99561 5.8832,9.33559 5.8832,16.01998 m -13.6164,-4.4856 c -1e-4,-2.56317 -0.7401,-4.62377 -2.2201,-6.18183 -1.4554,-1.58311 -3.3672,-2.37469 -5.7352,-2.37472 -2.5654,3e-5 -4.6498,0.74134 -6.2532,2.22395 -1.6034,1.45753 -2.6025,3.5684 -2.9971,6.3326 l 17.2056,0" id="path3127"></path>
      <path d="m 262.80836,190.24509 c -1.1594,-0.55281 -2.3188,-0.95488 -3.4781,-1.20621 -1.1348,-0.27639 -2.2818,-0.4146 -3.4412,-0.41463 -3.4041,3e-5 -6.0312,1.11828 -7.8812,3.35477 -1.8254,2.21141 -2.7381,5.39028 -2.7381,9.5366 l 0,19.45015 -13.2465,0 0,-42.21737 13.2465,0 0,6.93571 c 1.702,-2.7642 3.6507,-4.77455 5.8462,-6.03105 2.22,-1.28156 4.8718,-1.92236 7.9552,-1.9224 0.444,4e-5 0.925,0.0251 1.4431,0.0754 0.518,0.0251 1.2703,0.10053 2.2571,0.22616 l 0.037,12.21288" id="path3129"></path>
      <path d="m 299.52826,190.24509 c -1.1594,-0.55281 -2.3188,-0.95488 -3.4781,-1.20621 -1.1347,-0.27639 -2.2818,-0.4146 -3.4411,-0.41463 -3.4042,3e-5 -6.0312,1.11828 -7.8813,3.35477 -1.8254,2.21141 -2.7381,5.39028 -2.7381,9.5366 l 0,19.45015 -13.2464,0 0,-42.21737 13.2464,0 0,6.93571 c 1.7021,-2.7642 3.6508,-4.77455 5.8462,-6.03105 2.2201,-1.28156 4.8718,-1.92236 7.9553,-1.9224 0.444,4e-5 0.925,0.0251 1.443,0.0754 0.518,0.0251 1.2704,0.10053 2.2571,0.22616 l 0.037,12.21288" id="path3131"></path>
      <path d="m 348.37606,199.744 0,3.84479 -30.97,0 c 0.3206,3.16632 1.443,5.54105 3.3671,7.12419 1.924,1.58315 4.6128,2.37473 8.0663,2.37472 2.7874,10e-6 5.6364,-0.41463 8.5473,-1.2439 2.9353,-0.85439 5.9448,-2.13598 9.0283,-3.8448 l 0,10.40357 c -3.1329,1.20621 -6.2656,2.11087 -9.3984,2.71397 -3.1328,0.62824 -6.2655,0.94235 -9.3983,0.94235 -7.4989,0 -13.3328,-1.93496 -17.5016,-5.80489 -4.1441,-3.89504 -6.2162,-9.34811 -6.2162,-16.35922 0,-6.88543 2.0351,-12.3008 6.1052,-16.24615 4.0948,-3.94528 9.719,-5.91793 16.8726,-5.91797 6.5122,4e-5 11.717,1.99783 15.6145,5.99336 3.9221,3.99561 5.8832,9.33559 5.8832,16.01998 m -13.6164,-4.4856 c -10e-5,-2.56317 -0.7401,-4.62377 -2.2201,-6.18183 -1.4554,-1.58311 -3.3672,-2.37469 -5.7352,-2.37472 -2.5655,3e-5 -4.6499,0.74134 -6.2532,2.22395 -1.6034,1.45753 -2.6025,3.5684 -2.9971,6.3326 l 17.2056,0" id="path3133"></path>
      <path d="m 396.52196,184.93022 0,-22.61644 13.3204,0 0,58.65199 -13.3204,0 0,-6.10644 c -1.8254,2.48781 -3.8358,4.30969 -6.0312,5.46564 -2.1955,1.15594 -4.7362,1.73392 -7.6223,1.73392 -5.1062,0 -9.2996,-2.06061 -12.5804,-6.18183 -3.2808,-4.14634 -4.9212,-9.47376 -4.9212,-15.98228 0,-6.50849 1.6404,-11.82335 4.9212,-15.9446 3.2808,-4.14631 7.4742,-6.21948 12.5804,-6.21952 2.8614,4e-5 5.3898,0.59058 7.5853,1.77162 2.22,1.15599 4.2428,2.96531 6.0682,5.42794 m -8.7323,27.32821 c 2.8367,1e-5 4.9951,-1.05542 6.4752,-3.1663 1.5047,-2.11086 2.2571,-5.17663 2.2571,-9.19735 0,-4.02068 -0.7524,-7.08646 -2.2571,-9.19736 -1.4801,-2.11084 -3.6385,-3.16626 -6.4752,-3.1663 -2.8121,4e-5 -4.9705,1.05546 -6.4752,3.1663 -1.4801,2.1109 -2.2201,5.17668 -2.2201,9.19736 0,4.02072 0.74,7.08649 2.2201,9.19735 1.5047,2.11088 3.6631,3.16631 6.4752,3.1663" id="path3135"></path>
      <path d="m 462.85846,199.744 0,3.84479 -30.9701,0 c 0.3207,3.16632 1.4431,5.54105 3.3672,7.12419 1.924,1.58315 4.6127,2.37473 8.0662,2.37472 2.7874,10e-6 5.6365,-0.41463 8.5473,-1.2439 2.9354,-0.85439 5.9448,-2.13598 9.0283,-3.8448 l 0,10.40357 c -3.1328,1.20621 -6.2656,2.11087 -9.3983,2.71397 -3.1328,0.62824 -6.2656,0.94235 -9.3983,0.94235 -7.499,0 -13.3328,-1.93496 -17.5016,-5.80489 -4.1442,-3.89504 -6.2162,-9.34811 -6.2162,-16.35922 0,-6.88543 2.035,-12.3008 6.1052,-16.24615 4.0948,-3.94528 9.719,-5.91793 16.8726,-5.91797 6.5121,4e-5 11.717,1.99783 15.6145,5.99336 3.9221,3.99561 5.8831,9.33559 5.8832,16.01998 m -13.6165,-4.4856 c 0,-2.56317 -0.74,-4.62377 -2.22,-6.18183 -1.4555,-1.58311 -3.3672,-2.37469 -5.7352,-2.37472 -2.5655,3e-5 -4.6499,0.74134 -6.2533,2.22395 -1.6034,1.45753 -2.6024,3.5684 -2.9971,6.3326 l 17.2056,0" id="path3137"></path>
      <path d="m 150.52006,257.3255 18.1306,0 12.5804,30.11757 12.6545,-30.11757 18.0936,0 0,56.27726 -13.4685,0 0,-41.16193 -12.7284,30.34373 -9.0283,0 -12.7285,-30.34373 0,41.16193 -13.5054,0 0,-56.27726" id="path3139"></path>
      <path d="m 265.63156,292.38099 0,3.8448 -30.97,0 c 0.3206,3.16632 1.443,5.54104 3.3671,7.12418 1.924,1.58316 4.6128,2.37474 8.0662,2.37473 2.7874,1e-5 5.6365,-0.41463 8.5473,-1.24391 2.9354,-0.85439 5.9449,-2.13599 9.0283,-3.84479 l 0,10.40356 c -3.1328,1.20621 -6.2655,2.11087 -9.3983,2.71397 -3.1328,0.62824 -6.2655,0.94236 -9.3983,0.94236 -7.4989,0 -13.3328,-1.93496 -17.5016,-5.80489 -4.1441,-3.89505 -6.2162,-9.34812 -6.2162,-16.35923 0,-6.88542 2.0351,-12.3008 6.1052,-16.24614 4.0948,-3.94528 9.719,-5.91793 16.8726,-5.91798 6.5122,5e-5 11.717,1.99783 15.6145,5.99336 3.9221,3.9956 5.8832,9.33559 5.8832,16.01998 m -13.6164,-4.48559 c -1e-4,-2.56317 -0.7401,-4.62377 -2.2201,-6.18183 -1.4554,-1.58312 -3.3672,-2.37469 -5.7352,-2.37472 -2.5655,3e-5 -4.6499,0.74134 -6.2532,2.22394 -1.6034,1.45754 -2.6025,3.5684 -2.9971,6.33261 l 17.2056,0" id="path3141"></path>
      <path d="m 308.65116,272.70468 0,10.2528 c -2.8368,-1.20618 -5.5749,-2.11084 -8.2143,-2.71398 -2.6394,-0.60307 -5.1308,-0.90462 -7.4742,-0.90465 -2.5161,3e-5 -4.3909,0.32671 -5.6242,0.98003 -1.2087,0.62827 -1.8131,1.60832 -1.8131,2.94015 0,1.08059 0.4564,1.90986 1.3691,2.48781 0.9373,0.57799 2.6024,1.0052 4.9951,1.28159 l 2.3311,0.33925 c 6.7835,0.87955 11.347,2.32449 13.6905,4.33482 2.3434,2.01037 3.5151,5.1641 3.5151,9.46122 0,4.49816 -1.6281,7.87806 -4.8842,10.1397 -3.2561,2.26164 -8.1156,3.39247 -14.5785,3.39247 -2.7381,0 -5.5748,-0.22616 -8.5103,-0.6785 -2.9107,-0.42719 -5.9078,-1.08056 -8.9913,-1.96009 l 0,-10.25279 c 2.6395,1.30674 5.3405,2.28679 8.1033,2.94014 2.7874,0.65337 5.6119,0.98006 8.4733,0.98005 2.5901,1e-5 4.5388,-0.36437 5.8462,-1.09314 1.3073,-0.72873 1.961,-1.8093 1.9611,-3.24168 -1e-4,-1.2062 -0.4564,-2.09829 -1.3691,-2.67628 -0.888,-0.60309 -2.6764,-1.06798 -5.3652,-1.39468 l -2.331,-0.30155 c -5.8956,-0.75386 -10.0274,-2.14855 -12.3955,-4.18404 -2.368,-2.03547 -3.5521,-5.12637 -3.5521,-9.27275 0,-4.47299 1.5047,-7.79007 4.5142,-9.95123 3.0094,-2.1611 7.6222,-3.24165 13.8384,-3.2417 2.4421,5e-5 5.0075,0.18852 7.6963,0.56542 2.6887,0.37698 5.6118,0.96752 8.7693,1.77161" id="path3143"></path>
      <path d="m 337.73766,294.60494 c -2.7628,2e-5 -4.8472,0.47748 -6.2533,1.43238 -1.3814,0.95493 -2.072,2.36218 -2.072,4.22173 0,1.70881 0.555,3.05323 1.665,4.03327 1.1347,0.95493 2.7011,1.43239 4.6992,1.43238 2.4914,1e-5 4.5881,-0.90466 6.2902,-2.71398 1.702,-1.83443 2.5531,-4.1212 2.5531,-6.86032 l 0,-1.54546 -6.8822,0 m 20.2396,-5.0887 0,24.08652 -13.3574,0 0,-6.25722 c -1.7761,2.56321 -3.7742,4.43534 -5.9942,5.61642 -2.2201,1.15595 -4.9212,1.73393 -8.1033,1.73393 -4.2921,0 -7.7826,-1.26903 -10.4713,-3.8071 -2.6641,-2.5632 -3.9962,-5.88027 -3.9962,-9.95124 0,-4.95048 1.6651,-8.58166 4.9952,-10.89359 3.3548,-2.31187 8.6089,-3.46782 15.7625,-3.46786 l 7.8073,0 0,-1.05543 c 0,-2.13597 -0.8264,-3.69398 -2.4791,-4.67406 -1.6527,-1.00514 -4.2305,-1.50773 -7.7333,-1.50776 -2.8367,3e-5 -5.4762,0.28901 -7.9182,0.86696 -2.4421,0.57801 -4.7115,1.44497 -6.8083,2.60088 l 0,-10.29048 c 2.8368,-0.70358 5.6859,-1.23129 8.5473,-1.58314 2.8615,-0.3769 5.7229,-0.56537 8.5843,-0.56542 7.4743,5e-5 12.8641,1.50781 16.1696,4.52329 3.33,2.99043 4.9951,7.86553 4.9951,14.6253" id="path3145"></path>
      <path d="m 389.04216,271.38539 13.2465,0 11.1373,28.6475 9.4724,-28.6475 13.2464,0 -17.4276,46.21294 c -1.7514,4.69919 -3.7988,7.97857 -6.1422,9.83815 -2.3188,1.8847 -5.3899,2.82705 -9.2133,2.82707 l -7.6593,0 0,-8.85812 4.1442,0 c 2.2447,-1e-5 3.8728,-0.36438 4.8841,-1.09312 1.0361,-0.72876 1.8378,-2.03549 2.4051,-3.92018 l 0.37,-1.16852 -18.4636,-43.83822" id="path3147"></path>
      <path d="m 89.62616,349.96277 38.4444,0 0,10.96898 -24.1989,0 0,10.47895 22.7558,0 0,10.96898 -22.7558,0 0,12.89138 25.0129,0 0,10.96897 -39.2584,0 0,-56.27726" id="path3149"></path>
      <path d="m 170.17946,365.34195 0,10.25279 c -2.8368,-1.20617 -5.5749,-2.11083 -8.2143,-2.71397 -2.6394,-0.60307 -5.1308,-0.90463 -7.4742,-0.90466 -2.5161,3e-5 -4.3909,0.32672 -5.6242,0.98005 -1.2087,0.62826 -1.8131,1.60831 -1.8131,2.94014 0,1.08059 0.4564,1.90986 1.3691,2.48781 0.9373,0.578 2.6024,1.0052 4.9951,1.2816 l 2.3311,0.33924 c 6.7836,0.87955 11.347,2.32449 13.6905,4.33482 2.3434,2.01037 3.5151,5.1641 3.5151,9.46122 0,4.49817 -1.6281,7.87806 -4.8842,10.1397 -3.2561,2.26164 -8.1156,3.39246 -14.5785,3.39246 -2.7381,0 -5.5748,-0.22615 -8.5102,-0.67848 -2.9108,-0.4272 -5.9079,-1.08057 -8.9913,-1.9601 l 0,-10.25279 c 2.6394,1.30675 5.3405,2.28679 8.1032,2.94014 2.7874,0.65337 5.6119,0.98006 8.4733,0.98005 2.5901,1e-5 4.5388,-0.36437 5.8462,-1.09313 1.3074,-0.72874 1.961,-1.8093 1.9611,-3.24169 -1e-4,-1.2062 -0.4564,-2.09829 -1.3691,-2.67629 -0.888,-0.60308 -2.6764,-1.06798 -5.3651,-1.39467 l -2.3311,-0.30156 c -5.8956,-0.75386 -10.0274,-2.14854 -12.3954,-4.18404 -2.3681,-2.03546 -3.5522,-5.12637 -3.5522,-9.27274 0,-4.473 1.5047,-7.79007 4.5142,-9.95123 3.0094,-2.16109 7.6222,-3.24165 13.8385,-3.24169 2.442,4e-5 5.0074,0.18851 7.6962,0.56541 2.6887,0.37698 5.6118,0.96752 8.7693,1.77161" id="path3151"></path>
      <path d="m 216.17766,365.34195 0,11.00667 c -1.8008,-1.25644 -3.6138,-2.18622 -5.4392,-2.78936 -1.8008,-0.60307 -3.6755,-0.90462 -5.6242,-0.90465 -3.7001,3e-5 -6.5862,1.10572 -8.6583,3.31707 -2.0474,2.18629 -3.0711,5.25207 -3.0711,9.19736 0,3.94534 1.0237,7.02368 3.0711,9.23505 2.0721,2.18627 4.9582,3.27939 8.6583,3.27938 2.0721,10e-6 4.0331,-0.31411 5.8832,-0.94235 1.8747,-0.62822 3.6014,-1.558 5.1802,-2.78936 l 0,11.04437 c -2.0721,0.77901 -4.1812,1.35699 -6.3272,1.73393 -2.1215,0.40206 -4.2552,0.60309 -6.4013,0.60309 -7.4742,0 -13.3204,-1.94752 -17.5385,-5.84257 -4.2182,-3.92018 -6.3273,-9.36068 -6.3273,-16.32154 0,-6.96081 2.1091,-12.38875 6.3273,-16.28384 4.2181,-3.92015 10.0643,-5.88023 17.5385,-5.88027 2.1708,4e-5 4.3045,0.20107 6.4013,0.60309 2.1213,0.377 4.2304,0.95497 6.3272,1.73393" id="path3153"></path>
      <path d="m 255.65276,375.51936 c -1.1594,-0.55282 -2.3188,-0.95489 -3.4782,-1.20622 -1.1347,-0.27638 -2.2817,-0.4146 -3.4411,-0.41463 -3.4041,3e-5 -6.0312,1.11829 -7.8812,3.35478 -1.8255,2.2114 -2.7382,5.39027 -2.7381,9.53659 l 0,19.45015 -13.2465,0 0,-42.21737 13.2465,0 0,6.93572 c 1.702,-2.7642 3.6507,-4.77455 5.8462,-6.03105 2.22,-1.28157 4.8718,-1.92236 7.9552,-1.9224 0.444,4e-5 0.925,0.0251 1.4431,0.0754 0.518,0.0251 1.2703,0.10053 2.2571,0.22617 l 0.037,12.21288" id="path3155"></path>
      <path d="m 262.99196,389.80542 0,-25.78276 13.3205,0 0,4.22174 c -10e-5,2.28681 -0.012,5.16412 -0.037,8.63195 -0.025,3.44274 -0.037,5.74208 -0.037,6.89801 0,3.39249 0.086,5.8426 0.2591,7.35035 0.1726,1.48265 0.4686,2.5632 0.888,3.24169 0.5427,0.87954 1.2457,1.55803 2.1091,2.03548 0.888,0.47747 1.8993,0.71619 3.0341,0.71618 2.7627,10e-6 4.9334,-1.08054 6.5122,-3.24169 1.5787,-2.16111 2.368,-5.16407 2.3681,-9.00888 l 0,-20.84483 13.2464,0 0,42.21737 -13.2464,0 0,-6.10644 c -1.9981,2.46268 -4.1195,4.28456 -6.3642,5.46565 -2.2201,1.15594 -4.6746,1.73391 -7.3633,1.73391 -4.7855,0 -8.4363,-1.49519 -10.9524,-4.48559 -2.4914,-2.99039 -3.7371,-7.33777 -3.7371,-13.04214" id="path3157"></path>
      <path d="m 332.08236,352.03594 0,11.98672 13.6535,0 0,9.64969 -13.6535,0 0,17.90468 c 0,1.96011 0.3823,3.29197 1.1471,3.99557 0.7646,0.67851 2.2817,1.01776 4.5511,1.01775 l 6.8082,0 0,9.64968 -11.3593,0 c -5.2296,0 -8.942,-1.10569 -11.1374,-3.31707 -2.1708,-2.23652 -3.2562,-6.01849 -3.2561,-11.34593 l 0,-17.90468 -6.5863,0 0,-9.64969 6.5863,0 0,-11.98672 13.2464,0" id="path3159"></path>
      <path d="m 357.42566,364.02266 13.2464,0 0,42.21737 -13.2464,0 0,-42.21737 m 0,-16.43461 13.2464,0 0,11.00667 -13.2464,0 0,-11.00667" id="path3161"></path>
      <path d="m 421.85236,380.53267 0,25.70736 -13.3204,0 0,-4.18404 0,-15.49227 c -1e-4,-3.64373 -0.086,-6.15668 -0.259,-7.53882 -0.1481,-1.38208 -0.4194,-2.39982 -0.8141,-3.05322 -0.518,-0.8795 -1.221,-1.55798 -2.109,-2.03548 -0.8881,-0.50255 -1.8995,-0.75384 -3.0341,-0.75388 -2.7628,4e-5 -4.9336,1.09316 -6.5123,3.27939 -1.5787,2.16115 -2.3681,5.16412 -2.368,9.00888 l 0,20.76944 -13.2465,0 0,-42.21737 13.2465,0 0,6.18183 c 1.998,-2.46264 4.1194,-4.27195 6.3642,-5.42795 2.2447,-1.18103 4.7238,-1.77157 7.4372,-1.77161 4.7855,4e-5 8.4116,1.49523 10.8784,4.48559 2.4914,2.99043 3.7371,7.33781 3.7371,13.04215" id="path3163"></path>
      <path d="m 432.59516,364.02266 13.2465,0 0,42.21737 -13.2465,0 0,-42.21737 m 0,-16.43461 13.2465,0 0,11.00667 -13.2465,0 0,-11.00667" id="path3165"></path>
      <path d="m 477.08016,372.65461 c -2.9354,3e-5 -5.1802,1.0806 -6.7342,3.24169 -1.5294,2.13602 -2.2941,5.22694 -2.2941,9.27274 0,4.04584 0.7647,7.14933 2.2941,9.31044 1.554,2.136 3.7988,3.204 6.7342,3.20399 2.8861,10e-6 5.0938,-1.06799 6.6233,-3.20399 1.5293,-2.16111 2.294,-5.2646 2.294,-9.31044 0,-4.0458 -0.7647,-7.13672 -2.294,-9.27274 -1.5295,-2.16109 -3.7372,-3.24166 -6.6233,-3.24169 m 0,-9.64968 c 7.1289,4e-5 12.6914,1.96012 16.6876,5.88027 4.0208,3.92022 6.0312,9.34816 6.0312,16.28384 0,6.93573 -2.0104,12.36367 -6.0312,16.28384 -3.9962,3.92019 -9.5587,5.88027 -16.6876,5.88027 -7.1536,0 -12.7531,-1.96008 -16.7985,-5.88027 -4.0208,-3.92017 -6.0313,-9.34811 -6.0312,-16.28384 -10e-5,-6.93568 2.0104,-12.36362 6.0312,-16.28384 4.0454,-3.92015 9.6449,-5.88023 16.7985,-5.88027" id="path3167"></path>
    </g>

    <!-- XXX Logo vot.ar -->
        <!-- XXX Logo vot.ar -->
    <g transform="matrix(1.2646934,0,0,1.2646934,-955.72037,-91.494666)" id="g6951" fill="#ffffff">
      <g transform="matrix(1.4956797,0,0,-1.4956797,819.77791,489.84009)" id="g5206">
        <path d="m 0,0 -3.626,0 -4.753,13.57 3.782,0 2.707,-9.539 2.403,8.315 c 0.274,0.818 0.82,1.224 1.637,1.224 l 2.657,0 L 0,0 z" id="path5208" style="fill-opacity:1;fill-rule:nonzero;stroke:none"></path>
      </g>
      <g transform="matrix(1.4956797,0,0,-1.4956797,833.69551,474.57952)" id="g5210">
        <path d="m 0,0 c -0.715,-0.783 -1.04,-1.947 -0.971,-3.494 0.068,-1.549 0.358,-2.627 0.868,-3.24 0.206,-0.272 0.562,-0.502 1.073,-0.688 0.512,-0.187 1.031,-0.205 1.56,-0.051 0.529,0.153 0.995,0.535 1.405,1.149 0.41,0.611 0.631,1.597 0.667,2.957 0,1.224 -0.199,2.142 -0.59,2.758 C 3.618,0 3.169,0.391 2.657,0.563 2.146,0.732 1.633,0.742 1.125,0.59 0.614,0.434 0.239,0.238 0,0 m -2.453,-8.979 c -0.718,0.612 -1.226,1.438 -1.534,2.473 -0.309,1.037 -0.463,2.119 -0.463,3.242 0,0.916 0.132,1.836 0.385,2.756 0.254,0.918 0.655,1.684 1.202,2.295 0.886,1.02 2.028,1.625 3.425,1.811 C 1.959,3.785 3.222,3.674 4.345,3.266 5.638,2.758 6.595,1.871 7.207,0.613 7.784,-0.508 8.075,-1.818 8.075,-3.316 8.075,-4.404 7.955,-5.34 7.718,-6.121 7.48,-6.904 7.172,-7.568 6.798,-8.109 5.983,-9.234 4.94,-9.932 3.679,-10.203 c -1.124,-0.307 -2.255,-0.332 -3.4,-0.078 -1.142,0.254 -2.052,0.691 -2.732,1.302" id="path5212" style="fill-opacity:1;fill-rule:nonzero;stroke:none"></path>
      </g>
      <g transform="matrix(1.4956797,0,0,-1.4956797,856.66149,489.84009)" id="g5214">
        <path d="m 0,0 c -1.125,-0.068 -2.344,-0.051 -3.653,0.051 -1.314,0.101 -1.969,0.935 -1.969,2.5 l 0,15 1.84,0 c 0.442,0 0.836,-0.172 1.175,-0.51 0.341,-0.342 0.511,-0.748 0.511,-1.225 l 0,-2.295 2.096,0 0,-0.716 c 0,-0.508 -0.172,-0.926 -0.511,-1.248 -0.341,-0.325 -0.748,-0.483 -1.227,-0.483 l -0.358,0 0,-7.553 c 0,-0.58 0.341,-0.867 1.023,-0.867 L 0,2.654 0,0 z" id="path5216" style="fill-opacity:1;fill-rule:nonzero;stroke:none"></path>
      </g>
      <g transform="matrix(1.4956797,0,0,-1.4956797,877.52144,479.61562)" id="g5218">
        <path d="M 0,0 C -0.478,-0.238 -1.143,-0.457 -1.993,-0.664 L -3.17,-0.918 c -0.613,-0.17 -1.057,-0.391 -1.328,-0.664 -0.24,-0.375 -0.356,-0.75 -0.356,-1.121 0,-0.512 0.151,-0.918 0.458,-1.225 0.307,-0.273 0.75,-0.408 1.328,-0.408 0.955,0 1.703,0.272 2.252,0.816 C -0.272,-2.975 0,-2.229 0,-1.273 L 0,0 z m 0.816,-6.273 c -0.712,-0.375 -1.474,-0.604 -2.272,-0.692 -0.8,-0.084 -1.51,-0.125 -2.121,-0.125 -1.227,0 -2.3,0.332 -3.222,0.994 -0.921,0.662 -1.38,1.76 -1.38,3.291 0,1.428 0.416,2.448 1.253,3.061 0.834,0.611 1.902,1.021 3.193,1.224 0.172,0 0.377,0.024 0.615,0.077 0.238,0.052 0.512,0.093 0.817,0.127 1.499,0.203 2.251,0.648 2.251,1.328 0,0.509 -0.263,0.842 -0.792,0.996 -0.531,0.15 -1.015,0.23 -1.459,0.23 -0.476,0 -0.903,-0.072 -1.276,-0.205 -0.377,-0.137 -0.65,-0.394 -0.819,-0.767 l -3.426,0 c 0.138,1.054 0.614,1.922 1.431,2.601 0.923,0.783 2.233,1.174 3.937,1.174 1.908,0 3.34,-0.322 4.293,-0.967 0.99,-0.681 1.485,-1.633 1.485,-2.859 l 0,-4.643 C 3.324,-2.789 3.075,-3.852 2.581,-4.617 2.089,-5.383 1.5,-5.938 0.816,-6.273" id="path5220" style="fill-opacity:1;fill-rule:nonzero;stroke:none"></path>
      </g>
      <g transform="matrix(1.4956797,0,0,-1.4956797,884.40683,489.84009)" id="g5222">
        <path d="m 0,0 0,6.582 c 0,1.326 0.196,2.439 0.589,3.342 0.39,0.9 0.929,1.625 1.612,2.17 0.646,0.508 1.404,0.883 2.273,1.119 0.87,0.236 1.763,0.357 2.683,0.357 l 0.255,0 0.257,0 0,-3.621 -1.177,0 C 5.504,9.949 4.771,9.711 4.295,9.234 3.817,8.758 3.579,8.012 3.579,6.99 L 3.579,0 0,0 z" id="path5224" style="fill-opacity:1;fill-rule:nonzero;stroke:none"></path>
      </g>
      <g transform="matrix(1.4956797,0,0,-1.4956797,863.77123,487.74255)" id="g5226">
        <path d="m 0,0 c 0,-0.84 -0.686,-1.521 -1.527,-1.521 -0.843,0 -1.526,0.681 -1.526,1.521 0,0.842 0.683,1.521 1.526,1.521 C -0.686,1.521 0,0.842 0,0" id="path5228" style="fill-opacity:1;fill-rule:nonzero;stroke:none"></path>
      </g>
      <g transform="matrix(1.4956797,0,0,-1.4956797,808.25424,510.16323)" id="g5230">
        <path d="m 0,0 c 0.396,-0.23 0.991,-0.43 1.616,-0.43 0.782,0 1.219,0.369 1.219,0.92 0,0.51 -0.337,0.809 -1.19,1.119 -1.101,0.401 -1.805,0.989 -1.805,1.959 0,1.1 0.912,1.94 2.361,1.94 0.723,0 1.257,-0.16 1.606,-0.34 L 3.509,4.178 c -0.238,0.129 -0.704,0.32 -1.329,0.32 -0.773,0 -1.11,-0.42 -1.11,-0.81 0,-0.52 0.386,-0.76 1.279,-1.11 1.16,-0.439 1.725,-1.029 1.725,-1.998 0,-1.08 -0.813,-2.029 -2.538,-2.029 -0.705,0 -1.438,0.209 -1.805,0.429 L 0,0 z" id="path5232" style="fill-opacity:1;fill-rule:nonzero;stroke:none"></path>
      </g>
      <path d="m 817.74761,512.167 -1.82472,0 0,-10.0749 1.82472,0 0,10.0749 z" id="path5234" style="fill-opacity:1;fill-rule:nonzero;stroke:none"></path>
      <g transform="matrix(1.4956797,0,0,-1.4956797,819.72083,510.16323)" id="g5236">
        <path d="m 0,0 c 0.397,-0.23 0.992,-0.43 1.616,-0.43 0.783,0 1.219,0.369 1.219,0.92 0,0.51 -0.336,0.809 -1.189,1.119 -1.101,0.401 -1.805,0.989 -1.805,1.959 0,1.1 0.912,1.94 2.36,1.94 0.724,0 1.259,-0.16 1.606,-0.34 L 3.509,4.178 c -0.237,0.129 -0.702,0.32 -1.328,0.32 -0.773,0 -1.11,-0.42 -1.11,-0.81 0,-0.52 0.387,-0.76 1.279,-1.11 1.159,-0.439 1.725,-1.029 1.725,-1.998 0,-1.08 -0.813,-2.029 -2.537,-2.029 -0.705,0 -1.439,0.209 -1.805,0.429 L 0,0 z" id="path5238" style="fill-opacity:1;fill-rule:nonzero;stroke:none"></path>
      </g>
      <g transform="matrix(1.4956797,0,0,-1.4956797,829.30395,503.6313)" id="g5240">
        <path d="m 0,0 -1.903,0 0,1.029 5.046,0 0,-1.029 -1.923,0 0,-5.707 -1.22,0 L 0,0 z" id="path5242" style="fill-opacity:1;fill-rule:nonzero;stroke:none"></path>
      </g>
      <g transform="matrix(1.4956797,0,0,-1.4956797,840.69541,507.69761)" id="g5244">
        <path d="m 0,0 -2.517,0 0,-1.979 2.815,0 0,-1.009 -4.035,0 0,6.736 3.887,0 0,-1.01 -2.667,0 L -2.517,1 0,1 0,0 z" id="path5246" style="fill-opacity:1;fill-rule:nonzero;stroke:none"></path>
      </g>
      <g transform="matrix(1.4956797,0,0,-1.4956797,851.11037,508.05701)" id="g5248">
        <path d="m 0,0 c -0.041,0.871 -0.09,1.92 -0.08,2.84 l -0.029,0 C -0.328,2.01 -0.606,1.1 -0.903,0.25 l -0.972,-2.918 -0.941,0 -0.892,2.879 C -3.966,1.07 -4.204,1.99 -4.383,2.84 l -0.018,0 C -4.432,1.949 -4.472,0.881 -4.521,-0.039 l -0.149,-2.709 -1.141,0 0.447,6.736 1.606,0 0.873,-2.709 c 0.238,-0.789 0.446,-1.588 0.614,-2.338 l 0.03,0 c 0.178,0.731 0.406,1.559 0.663,2.35 l 0.923,2.697 1.586,0 0.387,-6.736 -1.189,0 L 0,0 z" id="path5250" style="fill-opacity:1;fill-rule:nonzero;stroke:none"></path>
      </g>
      <g transform="matrix(1.4956797,0,0,-1.4956797,859.64196,507.91971)" id="g5252">
        <path d="m 0,0 -0.524,1.658 c -0.129,0.41 -0.239,0.869 -0.337,1.26 l -0.021,0 C -0.981,2.527 -1.08,2.059 -1.198,1.658 L -1.715,0 0,0 z m -1.913,-0.93 -0.575,-1.91 -1.258,0 2.14,6.736 1.556,0 2.172,-6.736 -1.309,0 -0.605,1.91 -2.121,0 z" id="path5254" style="fill-opacity:1;fill-rule:nonzero;stroke:none"></path>
      </g>
      <g transform="matrix(1.4956797,0,0,-1.4956797,868.96076,510.7621)" id="g5256">
        <path d="M 0,0 C 0.169,-0.029 0.427,-0.029 0.674,-0.029 2.261,-0.039 3.201,0.84 3.201,2.549 3.212,4.039 2.36,4.889 0.832,4.889 0.445,4.889 0.169,4.857 0,4.818 L 0,0 z M -1.22,5.707 C -0.684,5.797 0,5.848 0.724,5.848 1.973,5.848 2.836,5.588 3.45,5.068 4.095,4.537 4.491,3.738 4.491,2.59 4.491,1.391 4.084,0.49 3.45,-0.09 2.787,-0.699 1.726,-1.01 0.427,-1.01 c -0.714,0 -1.25,0.041 -1.647,0.09 l 0,6.627 z" id="path5258" style="fill-opacity:1;fill-rule:nonzero;stroke:none"></path>
      </g>
      <g transform="matrix(1.4956797,0,0,-1.4956797,882.78551,507.69761)" id="g5260">
        <path d="m 0,0 -2.519,0 0,-1.979 2.817,0 0,-1.009 -4.036,0 0,6.736 3.887,0 0,-1.01 -2.668,0 L -2.519,1 0,1 0,0 z" id="path5262" style="fill-opacity:1;fill-rule:nonzero;stroke:none"></path>
      </g>
      <g transform="matrix(1.4956797,0,0,-1.4956797,889.56716,510.83509)" id="g5264">
        <path d="m 0,0 c 0.159,-0.031 0.368,-0.031 0.646,-0.031 0.782,0 1.476,0.301 1.476,1.131 0,0.779 -0.674,1.097 -1.517,1.097 L 0,2.197 0,0 z m 0,3.098 0.625,0 c 0.844,0 1.318,0.4 1.318,0.968 0,0.631 -0.474,0.92 -1.249,0.92 C 0.337,4.986 0.131,4.967 0,4.938 l 0,-1.84 z m -1.209,2.658 c 0.387,0.08 1.091,0.14 1.774,0.14 0.904,0 1.458,-0.109 1.914,-0.429 0.417,-0.25 0.694,-0.69 0.694,-1.26 0,-0.619 -0.386,-1.189 -1.11,-1.459 l 0,-0.019 C 2.767,2.549 3.411,1.988 3.411,1.059 3.411,0.459 3.153,-0.01 2.767,-0.33 2.29,-0.75 1.508,-0.961 0.288,-0.961 c -0.674,0 -1.189,0.051 -1.497,0.09 l 0,6.627 z" id="path5266" style="fill-opacity:1;fill-rule:nonzero;stroke:none"></path>
      </g>
      <g transform="matrix(1.4956797,0,0,-1.4956797,897.63713,507.17472)" id="g5268">
        <path d="m 0,0 c 0,-1.369 0.685,-2.469 1.854,-2.469 1.18,0 1.845,1.11 1.845,2.52 0,1.269 -0.625,2.478 -1.845,2.478 C 0.646,2.529 0,1.391 0,0 m 4.987,0.102 c 0,-2.26 -1.358,-3.549 -3.202,-3.549 -1.883,0 -3.072,1.449 -3.072,3.427 0,2.069 1.287,3.53 3.172,3.53 1.952,0 3.102,-1.49 3.102,-3.408" id="path5270" style="fill-opacity:1;fill-rule:nonzero;stroke:none"></path>
      </g>
      <g transform="matrix(1.4956797,0,0,-1.4956797,906.60104,502.0918)" id="g5272">
        <path d="m 0,0 1.22,0 0,-5.707 2.746,0 0,-1.029 L 0,-6.736 0,0 z" id="path5274" style="fill-opacity:1;fill-rule:nonzero;stroke:none"></path>
      </g>
      <g transform="matrix(1.4956797,0,0,-1.4956797,919.43265,507.69761)" id="g5276">
        <path d="m 0,0 -2.52,0 0,-1.979 2.815,0 0,-1.009 -4.033,0 0,6.736 3.885,0 0,-1.01 -2.667,0 L -2.52,1 0,1 0,0 z" id="path5278" style="fill-opacity:1;fill-rule:nonzero;stroke:none"></path>
      </g>
      <g transform="matrix(1.4956797,0,0,-1.4956797,923.46692,503.6313)" id="g5280">
        <path d="m 0,0 -1.901,0 0,1.029 5.045,0 0,-1.029 -1.924,0 0,-5.707 -1.22,0 L 0,0 z" id="path5282" style="fill-opacity:1;fill-rule:nonzero;stroke:none"></path>
      </g>
      <g transform="matrix(1.4956797,0,0,-1.4956797,933.05004,507.91971)" id="g5284">
        <path d="m 0,0 -0.524,1.658 c -0.129,0.41 -0.239,0.869 -0.337,1.26 l -0.021,0 C -0.979,2.527 -1.079,2.059 -1.198,1.658 L -1.714,0 0,0 z m -1.912,-0.93 -0.575,-1.91 -1.26,0 2.142,6.736 1.557,0 2.17,-6.736 -1.308,0 -0.605,1.91 -2.121,0 z" id="path5286" style="fill-opacity:1;fill-rule:nonzero;stroke:none"></path>
      </g>
      <g transform="matrix(1.4956797,0,0,-1.4956797,946.78864,499.75764)" id="g5288">
        <path d="m 0,0 -1.229,-1.201 -0.981,0 L -1.339,0 0,0 z m -2.964,-1.561 0,-3.927 c 0,-1.319 0.544,-1.928 1.367,-1.928 0.882,0 1.409,0.609 1.409,1.928 l 0,3.927 1.218,0 0,-3.847 c 0,-2.078 -1.059,-2.998 -2.667,-2.998 -1.547,0 -2.547,0.869 -2.547,2.988 l 0,3.857 1.22,0 z" id="path5290" style="fill-opacity:1;fill-rule:nonzero;stroke:none"></path>
      </g>
      <g transform="matrix(1.4956797,0,0,-1.4956797,950.35111,512.16714)" id="g5292">
        <path d="m 0,0 0,6.736 1.388,0 1.724,-2.888 C 3.561,3.1 3.945,2.318 4.254,1.59 l 0.018,0 C 4.193,2.488 4.164,3.359 4.164,4.389 l 0,2.347 1.129,0 L 5.293,0 4.034,0 2.291,2.969 C 1.863,3.699 1.417,4.527 1.091,5.287 L 1.061,5.277 C 1.111,4.408 1.121,3.518 1.121,2.408 L 1.121,0 0,0 z" id="path5294" style="fill-opacity:1;fill-rule:nonzero;stroke:none"></path>
      </g>
      <path d="m 962.13156,512.167 -1.82473,0 0,-10.0749 1.82473,0 0,10.0749 z" id="path5296" style="fill-opacity:1;fill-rule:nonzero;stroke:none"></path>
      <g transform="matrix(1.4956797,0,0,-1.4956797,971.31251,511.86622)" id="g5298">
        <path d="m 0,0 c -0.288,-0.15 -0.923,-0.311 -1.726,-0.311 -2.121,0 -3.411,1.35 -3.411,3.399 0,2.219 1.527,3.558 3.57,3.558 0.803,0 1.379,-0.169 1.626,-0.3 L -0.209,5.367 c -0.316,0.139 -0.754,0.26 -1.309,0.26 -1.357,0 -2.339,-0.861 -2.339,-2.479 0,-1.48 0.862,-2.429 2.33,-2.429 0.496,0 1.01,0.099 1.328,0.25 L 0,0 z" id="path5300" style="fill-opacity:1;fill-rule:nonzero;stroke:none"></path>
      </g>
      <g transform="matrix(1.4956797,0,0,-1.4956797,977.76415,507.91971)" id="g5302">
        <path d="m 0,0 -0.524,1.658 c -0.129,0.41 -0.239,0.869 -0.337,1.26 l -0.02,0 C -0.979,2.527 -1.08,2.059 -1.199,1.658 L -1.715,0 0,0 z m -1.912,-0.93 -0.575,-1.91 -1.259,0 2.14,6.736 1.557,0 2.171,-6.736 -1.309,0 -0.603,1.91 -2.122,0 z" id="path5304" style="fill-opacity:1;fill-rule:nonzero;stroke:none"></path>
      </g>
      <g transform="matrix(1.4956797,0,0,-1.4956797,992.42145,511.86622)" id="g5306">
        <path d="m 0,0 c -0.287,-0.15 -0.923,-0.311 -1.725,-0.311 -2.121,0 -3.411,1.35 -3.411,3.399 0,2.219 1.528,3.558 3.571,3.558 0.801,0 1.377,-0.169 1.625,-0.3 L -0.207,5.367 c -0.318,0.139 -0.754,0.26 -1.311,0.26 -1.357,0 -2.338,-0.861 -2.338,-2.479 0,-1.48 0.863,-2.429 2.329,-2.429 0.497,0 1.011,0.099 1.329,0.25 L 0,0 z" id="path5308" style="fill-opacity:1;fill-rule:nonzero;stroke:none"></path>
      </g>
      <g transform="matrix(1.4956797,0,0,-1.4956797,994.93372,507.17472)" id="g5310">
        <path d="m 0,0 c 0,-1.369 0.684,-2.469 1.853,-2.469 1.18,0 1.844,1.11 1.844,2.52 0,1.269 -0.625,2.478 -1.844,2.478 C 0.643,2.529 0,1.391 0,0 m 4.987,0.102 c 0,-2.26 -1.36,-3.549 -3.203,-3.549 -1.885,0 -3.074,1.449 -3.074,3.427 0,2.069 1.29,3.53 3.173,3.53 1.953,0 3.104,-1.49 3.104,-3.408" id="path5312" style="fill-opacity:1;fill-rule:nonzero;stroke:none"></path>
      </g>
      <g transform="matrix(1.4956797,0,0,-1.4956797,1003.8946,512.16714)" id="g5314">
        <path d="m 0,0 0,6.736 1.388,0 1.724,-2.888 C 3.56,3.1 3.945,2.318 4.253,1.59 l 0.019,0 C 4.193,2.488 4.164,3.359 4.164,4.389 l 0,2.347 1.13,0 L 5.294,0 4.034,0 2.29,2.969 C 1.863,3.699 1.418,4.527 1.09,5.287 L 1.061,5.277 C 1.111,4.408 1.121,3.518 1.121,2.408 L 1.121,0 0,0 z" id="path5316" style="fill-opacity:1;fill-rule:nonzero;stroke:none"></path>
      </g>
      <g transform="matrix(1.4956797,0,0,-1.4956797,1016.8022,510.16323)" id="g5318">
        <path d="m 0,0 c 0.396,-0.23 0.991,-0.43 1.616,-0.43 0.782,0 1.219,0.369 1.219,0.92 0,0.51 -0.338,0.809 -1.19,1.119 -1.101,0.401 -1.804,0.989 -1.804,1.959 0,1.1 0.912,1.94 2.36,1.94 0.722,0 1.258,-0.16 1.607,-0.34 L 3.509,4.178 c -0.238,0.129 -0.704,0.32 -1.328,0.32 -0.774,0 -1.111,-0.42 -1.111,-0.81 0,-0.52 0.387,-0.76 1.279,-1.11 1.16,-0.439 1.725,-1.029 1.725,-1.998 0,-1.08 -0.813,-2.029 -2.538,-2.029 -0.705,0 -1.437,0.209 -1.805,0.429 L 0,0 z" id="path5320" style="fill-opacity:1;fill-rule:nonzero;stroke:none"></path>
      </g>
      <g transform="matrix(1.4956797,0,0,-1.4956797,1025.8799,507.17472)" id="g5322">
        <path d="m 0,0 c 0,-1.369 0.684,-2.469 1.854,-2.469 1.179,0 1.844,1.11 1.844,2.52 0,1.269 -0.625,2.478 -1.844,2.478 C 0.644,2.529 0,1.391 0,0 m 4.987,0.102 c 0,-2.26 -1.359,-3.549 -3.203,-3.549 -1.884,0 -3.073,1.449 -3.073,3.427 0,2.069 1.289,3.53 3.173,3.53 1.953,0 3.103,-1.49 3.103,-3.408" id="path5324" style="fill-opacity:1;fill-rule:nonzero;stroke:none"></path>
      </g>
      <g transform="matrix(1.4956797,0,0,-1.4956797,1036.6507,506.9206)" id="g5326">
        <path d="m 0,0 c 0.148,-0.039 0.348,-0.049 0.596,-0.049 0.912,0 1.466,0.449 1.466,1.238 0,0.75 -0.515,1.151 -1.358,1.151 C 0.367,2.34 0.13,2.309 0,2.279 L 0,0 z m -1.209,3.139 c 0.436,0.08 1.041,0.14 1.863,0.14 0.893,0 1.547,-0.189 1.973,-0.55 C 3.023,2.4 3.282,1.869 3.282,1.24 3.282,0.6 3.082,0.07 2.707,-0.289 2.221,-0.779 1.458,-1.008 0.596,-1.008 0.367,-1.008 0.159,-0.998 0,-0.969 l 0,-2.539 -1.209,0 0,6.647 z" id="path5328" style="fill-opacity:1;fill-rule:nonzero;stroke:none"></path>
      </g>
      <g transform="matrix(1.4956797,0,0,-1.4956797,1044.4694,507.17472)" id="g5330">
        <path d="m 0,0 c 0,-1.369 0.684,-2.469 1.854,-2.469 1.18,0 1.844,1.11 1.844,2.52 0,1.269 -0.625,2.478 -1.844,2.478 C 0.646,2.529 0,1.391 0,0 m 4.986,0.102 c 0,-2.26 -1.357,-3.549 -3.202,-3.549 -1.883,0 -3.073,1.449 -3.073,3.427 0,2.069 1.289,3.53 3.173,3.53 1.953,0 3.102,-1.49 3.102,-3.408" id="path5332" style="fill-opacity:1;fill-rule:nonzero;stroke:none"></path>
      </g>
      <g transform="matrix(1.4956797,0,0,-1.4956797,1055.24,506.68099)" id="g5334">
        <path d="m 0,0 0.725,0 c 0.822,0 1.338,0.439 1.338,1.109 0,0.741 -0.516,1.08 -1.309,1.08 C 0.367,2.189 0.119,2.16 0,2.129 L 0,0 z m -1.209,2.979 c 0.456,0.08 1.14,0.14 1.843,0.14 0.963,0 1.617,-0.16 2.063,-0.541 C 3.063,2.27 3.272,1.799 3.272,1.23 3.272,0.359 2.688,-0.229 2.063,-0.459 l 0,-0.029 C 2.537,-0.67 2.825,-1.139 2.995,-1.789 3.202,-2.629 3.381,-3.408 3.52,-3.668 l -1.259,0 c -0.099,0.201 -0.258,0.75 -0.447,1.59 -0.189,0.879 -0.505,1.158 -1.199,1.18 l -0.615,0 0,-2.77 -1.209,0 0,6.647 z" id="path5336" style="fill-opacity:1;fill-rule:nonzero;stroke:none"></path>
      </g>
      <g transform="matrix(1.4956797,0,0,-1.4956797,1063.7847,503.6313)" id="g5338">
        <path d="m 0,0 -1.902,0 0,1.029 5.045,0 0,-1.029 -1.923,0 0,-5.707 -1.22,0 L 0,0 z" id="path5340" style="fill-opacity:1;fill-rule:nonzero;stroke:none"></path>
      </g>
      <g transform="matrix(1.4956797,0,0,-1.4956797,1075.1776,507.69761)" id="g5342">
        <path d="m 0,0 -2.519,0 0,-1.979 2.816,0 0,-1.009 -4.035,0 0,6.736 3.886,0 0,-1.01 -2.667,0 L -2.519,1 0,1 0,0 z" id="path5344" style="fill-opacity:1;fill-rule:nonzero;stroke:none"></path>
      </g>
      <g transform="matrix(1.4956797,0,0,-1.4956797,1085.7423,507.69761)" id="g5346">
        <path d="m 0,0 -2.52,0 0,-1.979 2.816,0 0,-1.009 -4.033,0 0,6.736 3.885,0 0,-1.01 -2.668,0 L -2.52,1 0,1 0,0 z" id="path5348" style="fill-opacity:1;fill-rule:nonzero;stroke:none"></path>
      </g>
      <g transform="matrix(1.4956797,0,0,-1.4956797,1087.7171,502.0918)" id="g5350">
        <path d="m 0,0 1.219,0 0,-5.707 2.748,0 0,-1.029 L 0,-6.736 0,0 z" id="path5352" style="fill-opacity:1;fill-rule:nonzero;stroke:none"></path>
      </g>
      <g transform="matrix(1.4956797,0,0,-1.4956797,1100.5472,507.69761)" id="g5354">
        <path d="m 0,0 -2.518,0 0,-1.979 2.815,0 0,-1.009 -4.035,0 0,6.736 3.887,0 0,-1.01 -2.667,0 L -2.518,1 0,1 0,0 z" id="path5356" style="fill-opacity:1;fill-rule:nonzero;stroke:none"></path>
      </g>
      <g transform="matrix(1.4956797,0,0,-1.4956797,1109.6848,511.86622)" id="g5358">
        <path d="m 0,0 c -0.287,-0.15 -0.922,-0.311 -1.725,-0.311 -2.121,0 -3.411,1.35 -3.411,3.399 0,2.219 1.528,3.558 3.571,3.558 0.801,0 1.377,-0.169 1.626,-0.3 L -0.208,5.367 c -0.317,0.139 -0.753,0.26 -1.31,0.26 -1.357,0 -2.338,-0.861 -2.338,-2.479 0,-1.48 0.863,-2.429 2.329,-2.429 0.496,0 1.011,0.099 1.329,0.25 L 0,0 z" id="path5360" style="fill-opacity:1;fill-rule:nonzero;stroke:none"></path>
      </g>
      <g transform="matrix(1.4956797,0,0,-1.4956797,1113.3817,503.6313)" id="g5362">
        <path d="m 0,0 -1.903,0 0,1.029 5.046,0 0,-1.029 -1.925,0 0,-5.707 L 0,-5.707 0,0 z" id="path5364" style="fill-opacity:1;fill-rule:nonzero;stroke:none"></path>
      </g>
      <g transform="matrix(1.4956797,0,0,-1.4956797,1120.993,506.68099)" id="g5366">
        <path d="m 0,0 0.723,0 c 0.824,0 1.339,0.439 1.339,1.109 0,0.741 -0.515,1.08 -1.309,1.08 C 0.367,2.189 0.119,2.16 0,2.129 L 0,0 z m -1.21,2.979 c 0.457,0.08 1.141,0.14 1.844,0.14 0.962,0 1.616,-0.16 2.062,-0.541 C 3.063,2.27 3.271,1.799 3.271,1.23 3.271,0.359 2.687,-0.229 2.062,-0.459 l 0,-0.029 C 2.538,-0.67 2.825,-1.139 2.994,-1.789 3.202,-2.629 3.38,-3.408 3.52,-3.668 l -1.259,0 c -0.1,0.201 -0.258,0.75 -0.447,1.59 -0.188,0.879 -0.505,1.158 -1.2,1.18 l -0.614,0 0,-2.77 -1.21,0 0,6.647 z" id="path5368" style="fill-opacity:1;fill-rule:nonzero;stroke:none"></path>
      </g>
      <g transform="matrix(1.4956797,0,0,-1.4956797,1134.105,499.72848)" id="g5370">
        <path d="m 0,0 -1.229,-1.199 -0.981,0 L -1.337,0 0,0 z m -3.439,-4.979 c 0,-1.369 0.684,-2.468 1.854,-2.468 1.18,0 1.844,1.109 1.844,2.519 0,1.27 -0.624,2.479 -1.844,2.479 -1.21,0 -1.854,-1.139 -1.854,-2.53 m 4.986,0.102 c 0,-2.26 -1.358,-3.549 -3.202,-3.549 -1.883,0 -3.074,1.449 -3.074,3.428 0,2.068 1.29,3.529 3.173,3.529 1.954,0 3.103,-1.49 3.103,-3.408" id="path5372" style="fill-opacity:1;fill-rule:nonzero;stroke:none"></path>
      </g>
      <g transform="matrix(1.4956797,0,0,-1.4956797,1137.9217,512.16714)" id="g5374">
        <path d="m 0,0 0,6.736 1.388,0 1.725,-2.888 C 3.56,3.1 3.945,2.318 4.253,1.59 l 0.02,0 C 4.193,2.488 4.164,3.359 4.164,4.389 l 0,2.347 1.13,0 L 5.294,0 4.035,0 2.29,2.969 C 1.864,3.699 1.417,4.527 1.09,5.287 L 1.062,5.277 C 1.11,4.408 1.121,3.518 1.121,2.408 L 1.121,0 0,0 z" id="path5376" style="fill-opacity:1;fill-rule:nonzero;stroke:none"></path>
      </g>
      <path d="m 1149.7002,512.167 -1.8231,0 0,-10.0749 1.8231,0 0,10.0749 z" id="path5378" style="fill-opacity:1;fill-rule:nonzero;stroke:none"></path>
      <g transform="matrix(1.4956797,0,0,-1.4956797,1158.8815,511.86622)" id="g5380">
        <path d="m 0,0 c -0.288,-0.15 -0.923,-0.311 -1.726,-0.311 -2.121,0 -3.41,1.35 -3.41,3.399 0,2.219 1.528,3.558 3.569,3.558 0.803,0 1.378,-0.169 1.626,-0.3 L -0.208,5.367 c -0.318,0.139 -0.754,0.26 -1.31,0.26 -1.357,0 -2.338,-0.861 -2.338,-2.479 0,-1.48 0.861,-2.429 2.33,-2.429 0.494,0 1.01,0.099 1.327,0.25 L 0,0 z" id="path5382" style="fill-opacity:1;fill-rule:nonzero;stroke:none"></path>
      </g>
      <g transform="matrix(1.4956797,0,0,-1.4956797,1161.3925,507.17472)" id="g5384">
        <path d="m 0,0 c 0,-1.369 0.684,-2.469 1.854,-2.469 1.179,0 1.842,1.11 1.842,2.52 0,1.269 -0.623,2.478 -1.842,2.478 C 0.645,2.529 0,1.391 0,0 m 4.986,0.102 c 0,-2.26 -1.357,-3.549 -3.202,-3.549 -1.883,0 -3.074,1.449 -3.074,3.427 0,2.069 1.29,3.53 3.173,3.53 1.954,0 3.103,-1.49 3.103,-3.408" id="path5386" style="fill-opacity:1;fill-rule:nonzero;stroke:none"></path>
      </g>
    </g>

    <!-- XXX Legends -->
    
    

  </g>
</svg>
